<svg width="209" height="70" viewBox="0 0 209 70" fill="none" xmlns="http://www.w3.org/2000/svg">
<path d="M0 29.8936C0 21.6094 6.71573 14.8936 15 14.8936H52.25H78.375H85.8041C89.3845 14.8936 92.7912 13.3502 95.152 10.6584C100.105 5.01135 108.895 5.01135 113.848 10.6584C116.209 13.3502 119.615 14.8936 123.196 14.8936H130.625H156.75H194C202.284 14.8936 209 21.6093 209 29.8936V55C209 63.2843 202.284 70 194 70H104.5H15C6.71573 70 0 63.2843 0 55V29.8936Z" fill="#272727"/>
<path d="M68.0078 49H66.5V38.8594H60.8906V49H59.3906V37.625H68.0078V49ZM70.1328 44.6953C70.1328 43.8672 70.2943 43.1224 70.6172 42.4609C70.9453 41.7995 71.3984 41.2891 71.9766 40.9297C72.5599 40.5703 73.224 40.3906 73.9688 40.3906C75.1198 40.3906 76.0495 40.7891 76.7578 41.5859C77.4714 42.3828 77.8281 43.4427 77.8281 44.7656V44.8672C77.8281 45.6901 77.6693 46.4297 77.3516 47.0859C77.0391 47.737 76.5885 48.2448 76 48.6094C75.4167 48.974 74.7448 49.1562 73.9844 49.1562C72.8385 49.1562 71.9089 48.7578 71.1953 47.9609C70.487 47.1641 70.1328 46.1094 70.1328 44.7969V44.6953ZM71.5859 44.8672C71.5859 45.8047 71.8021 46.5573 72.2344 47.125C72.6719 47.6927 73.2552 47.9766 73.9844 47.9766C74.7188 47.9766 75.3021 47.6901 75.7344 47.1172C76.1667 46.5391 76.3828 45.7318 76.3828 44.6953C76.3828 43.7682 76.1615 43.0182 75.7188 42.4453C75.2812 41.8672 74.6979 41.5781 73.9688 41.5781C73.2552 41.5781 72.6797 41.862 72.2422 42.4297C71.8047 42.9974 71.5859 43.8099 71.5859 44.8672ZM79.0078 47.8203L79.5078 47.2031C80.0703 46.474 80.3906 45.3802 80.4688 43.9219L80.6016 40.5469H86.0469V47.8203H87.1328V51.4844H85.6875V49H79.7891V51.4844H78.3438L78.3516 47.8203H79.0078ZM80.7188 47.8203H84.6016V41.8828H82L81.9141 43.8984C81.8255 45.5807 81.4271 46.888 80.7188 47.8203ZM92.4453 41.0312C93.5078 41.0312 94.3568 41.388 94.9922 42.1016C95.6328 42.8099 95.9531 43.7448 95.9531 44.9062V45.0391C95.9531 45.8359 95.7995 46.5495 95.4922 47.1797C95.1849 47.8047 94.7422 48.2917 94.1641 48.6406C93.5911 48.9844 92.9297 49.1562 92.1797 49.1562C91.0443 49.1562 90.1302 48.7786 89.4375 48.0234C88.7448 47.263 88.3984 46.2448 88.3984 44.9688V44.2656C88.3984 42.4896 88.7266 41.0781 89.3828 40.0312C90.0443 38.9844 91.0182 38.3464 92.3047 38.1172C93.0339 37.987 93.526 37.8281 93.7812 37.6406C94.0365 37.4531 94.1641 37.1953 94.1641 36.8672H95.3516C95.3516 37.5182 95.2031 38.026 94.9062 38.3906C94.6146 38.7552 94.1458 39.013 93.5 39.1641L92.4219 39.4062C91.5625 39.6094 90.9167 39.9531 90.4844 40.4375C90.0573 40.9167 89.7786 41.5573 89.6484 42.3594C90.4141 41.474 91.3464 41.0312 92.4453 41.0312ZM92.1641 42.2188C91.4557 42.2188 90.8932 42.4583 90.4766 42.9375C90.0599 43.4115 89.8516 44.0703 89.8516 44.9141V45.0391C89.8516 45.9453 90.0599 46.6641 90.4766 47.1953C90.8984 47.7214 91.4661 47.9844 92.1797 47.9844C92.8984 47.9844 93.4661 47.7188 93.8828 47.1875C94.2995 46.6562 94.5078 45.8802 94.5078 44.8594C94.5078 44.0625 94.2969 43.4245 93.875 42.9453C93.4583 42.4609 92.888 42.2188 92.1641 42.2188ZM104.578 44.8672C104.578 46.1536 104.284 47.1901 103.695 47.9766C103.107 48.763 102.31 49.1562 101.305 49.1562C100.279 49.1562 99.4714 48.8307 98.8828 48.1797V52.25H97.4375V40.5469H98.7578L98.8281 41.4844C99.4167 40.7552 100.234 40.3906 101.281 40.3906C102.297 40.3906 103.099 40.7734 103.688 41.5391C104.281 42.3047 104.578 43.3698 104.578 44.7344V44.8672ZM103.133 44.7031C103.133 43.75 102.93 42.9974 102.523 42.4453C102.117 41.8932 101.56 41.6172 100.852 41.6172C99.9766 41.6172 99.3203 42.0052 98.8828 42.7812V46.8203C99.3151 47.5911 99.9766 47.9766 100.867 47.9766C101.56 47.9766 102.109 47.7031 102.516 47.1562C102.927 46.6042 103.133 45.7865 103.133 44.7031ZM106.039 44.6953C106.039 43.8672 106.201 43.1224 106.523 42.4609C106.852 41.7995 107.305 41.2891 107.883 40.9297C108.466 40.5703 109.13 40.3906 109.875 40.3906C111.026 40.3906 111.956 40.7891 112.664 41.5859C113.378 42.3828 113.734 43.4427 113.734 44.7656V44.8672C113.734 45.6901 113.576 46.4297 113.258 47.0859C112.945 47.737 112.495 48.2448 111.906 48.6094C111.323 48.974 110.651 49.1562 109.891 49.1562C108.745 49.1562 107.815 48.7578 107.102 47.9609C106.393 47.1641 106.039 46.1094 106.039 44.7969V44.6953ZM107.492 44.8672C107.492 45.8047 107.708 46.5573 108.141 47.125C108.578 47.6927 109.161 47.9766 109.891 47.9766C110.625 47.9766 111.208 47.6901 111.641 47.1172C112.073 46.5391 112.289 45.7318 112.289 44.6953C112.289 43.7682 112.068 43.0182 111.625 42.4453C111.188 41.8672 110.604 41.5781 109.875 41.5781C109.161 41.5781 108.586 41.862 108.148 42.4297C107.711 42.9974 107.492 43.8099 107.492 44.8672ZM119.258 41.0312C120.32 41.0312 121.169 41.388 121.805 42.1016C122.445 42.8099 122.766 43.7448 122.766 44.9062V45.0391C122.766 45.8359 122.612 46.5495 122.305 47.1797C121.997 47.8047 121.555 48.2917 120.977 48.6406C120.404 48.9844 119.742 49.1562 118.992 49.1562C117.857 49.1562 116.943 48.7786 116.25 48.0234C115.557 47.263 115.211 46.2448 115.211 44.9688V44.2656C115.211 42.4896 115.539 41.0781 116.195 40.0312C116.857 38.9844 117.831 38.3464 119.117 38.1172C119.846 37.987 120.339 37.8281 120.594 37.6406C120.849 37.4531 120.977 37.1953 120.977 36.8672H122.164C122.164 37.5182 122.016 38.026 121.719 38.3906C121.427 38.7552 120.958 39.013 120.312 39.1641L119.234 39.4062C118.375 39.6094 117.729 39.9531 117.297 40.4375C116.87 40.9167 116.591 41.5573 116.461 42.3594C117.227 41.474 118.159 41.0312 119.258 41.0312ZM118.977 42.2188C118.268 42.2188 117.706 42.4583 117.289 42.9375C116.872 43.4115 116.664 44.0703 116.664 44.9141V45.0391C116.664 45.9453 116.872 46.6641 117.289 47.1953C117.711 47.7214 118.279 47.9844 118.992 47.9844C119.711 47.9844 120.279 47.7188 120.695 47.1875C121.112 46.6562 121.32 45.8802 121.32 44.8594C121.32 44.0625 121.109 43.4245 120.688 42.9453C120.271 42.4609 119.701 42.2188 118.977 42.2188ZM131.156 49H129.711V45.3906H125.828V49H124.375V40.5469H125.828V44.2109H129.711V40.5469H131.156V49ZM136.992 49.1562C135.846 49.1562 134.914 48.7812 134.195 48.0312C133.477 47.276 133.117 46.2682 133.117 45.0078V44.7422C133.117 43.9036 133.276 43.1562 133.594 42.5C133.917 41.8385 134.365 41.3229 134.938 40.9531C135.516 40.5781 136.141 40.3906 136.812 40.3906C137.911 40.3906 138.766 40.7526 139.375 41.4766C139.984 42.2005 140.289 43.237 140.289 44.5859V45.1875H134.562C134.583 46.0208 134.826 46.6953 135.289 47.2109C135.758 47.7214 136.352 47.9766 137.07 47.9766C137.581 47.9766 138.013 47.8724 138.367 47.6641C138.721 47.4557 139.031 47.1797 139.297 46.8359L140.18 47.5234C139.471 48.612 138.409 49.1562 136.992 49.1562ZM136.812 41.5781C136.229 41.5781 135.74 41.7917 135.344 42.2188C134.948 42.6406 134.703 43.2344 134.609 44H138.844V43.8906C138.802 43.1562 138.604 42.5885 138.25 42.1875C137.896 41.7812 137.417 41.5781 136.812 41.5781ZM145.477 49.1562C144.331 49.1562 143.398 48.7812 142.68 48.0312C141.961 47.276 141.602 46.2682 141.602 45.0078V44.7422C141.602 43.9036 141.76 43.1562 142.078 42.5C142.401 41.8385 142.849 41.3229 143.422 40.9531C144 40.5781 144.625 40.3906 145.297 40.3906C146.396 40.3906 147.25 40.7526 147.859 41.4766C148.469 42.2005 148.773 43.237 148.773 44.5859V45.1875H143.047C143.068 46.0208 143.31 46.6953 143.773 47.2109C144.242 47.7214 144.836 47.9766 145.555 47.9766C146.065 47.9766 146.497 47.8724 146.852 47.6641C147.206 47.4557 147.516 47.1797 147.781 46.8359L148.664 47.5234C147.956 48.612 146.893 49.1562 145.477 49.1562ZM145.297 41.5781C144.714 41.5781 144.224 41.7917 143.828 42.2188C143.432 42.6406 143.188 43.2344 143.094 44H147.328V43.8906C147.286 43.1562 147.089 42.5885 146.734 42.1875C146.38 41.7812 145.901 41.5781 145.297 41.5781Z" fill="white"/>
</svg>
