<svg width="12" height="12" viewBox="0 0 12 12" fill="none" xmlns="http://www.w3.org/2000/svg">
<path d="M6.04372 7.18829L10.9647 1.78699L11.6143 2.37888L6.08883 8.44375L3.07658 5.58023L3.68221 4.94323L6.04372 7.18829ZM11.2731 4.04414L10.5877 4.79876C10.6872 5.18081 10.7402 5.5814 10.7402 5.99414C10.7402 8.61108 8.61108 10.7402 5.99414 10.7402C3.3772 10.7402 1.24805 8.61108 1.24805 5.99414C1.24805 3.3772 3.3772 1.24805 5.99414 1.24805C7.20648 1.24805 8.3139 1.70522 9.15374 2.45586L9.74625 1.80347C8.71333 0.876434 7.39277 0.369141 5.99414 0.369141C4.49169 0.369141 3.07906 0.954231 2.01668 2.01668C0.954231 3.07906 0.369141 4.49169 0.369141 5.99414C0.369141 7.49659 0.954231 8.90923 2.01668 9.9716C3.07906 11.034 4.49169 11.6191 5.99414 11.6191C7.49659 11.6191 8.90923 11.034 9.9716 9.9716C11.034 8.90923 11.6191 7.49659 11.6191 5.99414C11.6191 5.31793 11.5003 4.66013 11.2731 4.04414Z" fill="white"/>
</svg>
